<svg width="137" height="382" viewBox="0 0 137 382" fill="none" xmlns="http://www.w3.org/2000/svg">
<g clip-path="url(#clip0_1_851)">
<path d="M118.351 -190.821V-190.81H118.17H118.133H118.101H99.4946V-190.799C99.436 -190.799 99.3774 -190.805 99.3189 -190.81H99.1964C88.9057 -190.772 80.5688 -182.393 80.4198 -172.004L80.4144 -133.523V0.13913V49.1118L53.3541 76.5027L80.4144 103.899V182.93V281.021V325.095C80.6114 335.441 88.927 343.772 99.1858 343.81H99.3082C99.3668 343.805 99.4254 343.799 99.4892 343.794V343.81H118.09H118.128H118.159H118.34V343.821C128.663 343.939 136.989 352.432 136.989 362.902V362.908C136.989 373.378 128.663 381.871 118.34 381.989V381.995H118.287C118.234 381.995 118.181 382 118.128 382C118.069 382 118.021 381.995 117.962 381.995H80.6221V381.989C80.5475 381.989 80.4783 381.995 80.4091 381.995C59.5722 381.995 42.6854 364.902 42.6801 343.815V281.021V251.841V201.914V182.93V119.709L0 76.5027L42.6801 33.3067V0.13913V-54.6049V-111.671V-133.523V-190.816H42.6907C42.696 -211.902 59.5828 -228.995 80.4198 -228.995C80.489 -228.995 80.5582 -228.989 80.6274 -228.989L117.973 -228.995C118.026 -228.995 118.08 -229 118.133 -229C118.191 -229 118.239 -228.995 118.298 -228.995H118.351C128.668 -228.881 137 -220.378 137 -209.908C137 -199.437 128.668 -190.934 118.351 -190.821Z" fill="#1E1F47"/>
</g>
<defs>
<clipPath id="clip0_1_851">
<rect width="137" height="382" fill="white" transform="matrix(-1 0 0 -1 137 382)"/>
</clipPath>
</defs>
</svg>
