<svg width="137" height="382" viewBox="0 0 137 382" fill="none" xmlns="http://www.w3.org/2000/svg">
<g clip-path="url(#clip0_1_849)">
<path d="M18.6489 572.821V572.81H18.8299H18.8672H18.8991H37.5054V572.799C37.564 572.799 37.6226 572.805 37.6811 572.81H37.8036C48.0943 572.772 56.4312 564.393 56.5802 554.004L56.5856 515.523V381.861V332.888L83.6459 305.497L56.5856 278.101V199.07V100.979V56.9049C56.3886 46.5586 48.073 38.2276 37.8142 38.1899H37.6918C37.6332 38.1953 37.5746 38.2007 37.5108 38.2061V38.1899H18.9098H18.8725H18.8406H18.6596V38.1791C8.33691 38.0606 0.0106506 29.5679 0.0106506 19.0977V19.0922C0.0106506 8.62195 8.33691 0.129395 18.6596 0.0108643V0.00543213H18.7128C18.766 0.00543213 18.8193 0 18.8725 0C18.9311 0 18.979 0.00543213 19.0375 0.00543213H56.3779V0.0108643C56.4525 0.0108643 56.5217 0.00543213 56.5909 0.00543213C77.4278 0.00543213 94.3146 17.0984 94.3199 38.1845V100.979V130.159V180.086V199.07V262.291L137 305.497L94.3199 348.693V381.861V436.605V493.671V515.523V572.816H94.3093C94.304 593.902 77.4172 610.995 56.5802 610.995C56.511 610.995 56.4418 610.989 56.3726 610.989L19.0269 610.995C18.9736 610.995 18.9204 611 18.8672 611C18.8086 611 18.7607 610.995 18.7021 610.995H18.6489C8.33159 610.881 0 602.378 0 591.908C0 581.437 8.33159 572.934 18.6489 572.821Z" fill="#1E1F47"/>
</g>
<defs>
<clipPath id="clip0_1_849">
<rect width="137" height="382" fill="white"/>
</clipPath>
</defs>
</svg>
